<svg width="56.124951171875px" height="128.03500976562498px" xmlns="http://www.w3.org/2000/svg" viewBox="221.9375244140625 10.982495117187511 56.124951171875 128.03500976562498" style="background: rgba(238, 97, 35, 0);" preserveAspectRatio="xMidYMid"><defs><filter id="editing-extrude-glow"><feFlood flood-color="#485056" result="flood-1"></feFlood><feMorphology operator="erode" radius="1" in="SourceAlpha" result="erode"></feMorphology><feComposite operator="in" in="flood-1" in2="erode" result="comp1"></feComposite><feConvolveMatrix order="4,4" divisor="1" in="comp1" result="convolve" kernelMatrix="0 0 0 0 0 0 0 0 1 1 1 1 0 0 0 0"></feConvolveMatrix><feOffset dx="-4" dy="0" in="convolve" result="extrude"></feOffset><feComposite operator="in" in="flood-1" in2="extrude" result="comp-extrude"></feComposite><feFlood flood-color="#999796" result="flood-2"></feFlood><feComposite operator="in" in="flood-2" in2="SourceAlpha" result="comp2"></feComposite><feMorphology operator="dilate" radius="1" in="comp2" result="dilate"></feMorphology><feOffset dx="-6" dy="0" in="dilate" result="offset"></feOffset><feGaussianBlur in="offset" stdDeviation="5.8" result="blur"></feGaussianBlur><feComponentTransfer in="blur" result="shadow"><feFuncA type="linear" slope="0.8" intercept="-0.2"></feFuncA></feComponentTransfer><feMerge><feMergeNode in="shadow"></feMergeNode><feMergeNode in="comp-extrude"></feMergeNode><feMergeNode in="SourceGraphic"></feMergeNode></feMerge></filter></defs><g filter="url(#editing-extrude-glow)"><g transform="translate(236.74999904632568, 99.38999938964844)"><path d="M16.64-37.18L16.64-12.10L16.64-12.10Q16.64-8.90 16.90-7.04L16.90-7.04L16.90-7.04Q17.15-5.18 17.89-4.16L17.89-4.16L17.89-4.16Q18.62-3.14 20-2.82L20-2.82L20-2.82Q21.38-2.50 23.62-2.43L23.62-2.43L23.62 0L2.88 0L2.88-2.43L2.88-2.43Q5.12-2.50 6.50-2.85L6.50-2.85L6.50-2.85Q7.87-3.20 8.64-4.16L8.64-4.16L8.64-4.16Q9.41-5.12 9.66-6.88L9.66-6.88L9.66-6.88Q9.92-8.64 9.92-11.65L9.92-11.65L9.92-37.63L9.92-37.63Q9.92-40.32 9.70-42.08L9.70-42.08L9.70-42.08Q9.47-43.84 8.80-44.86L8.80-44.86L8.80-44.86Q8.13-45.89 6.85-46.30L6.85-46.30L6.85-46.30Q5.57-46.72 3.52-46.85L3.52-46.85L3.52-49.28L22.98-49.28L22.98-46.85L22.98-46.85Q20.93-46.78 19.68-46.34L19.68-46.34L19.68-46.34Q18.43-45.89 17.76-44.83L17.76-44.83L17.76-44.83Q17.09-43.78 16.86-41.92L16.86-41.92L16.86-41.92Q16.64-40.06 16.64-37.18L16.64-37.18Z" fill="#eb5523"></path></g></g><style>text {
  font-size: 64px;
  font-family: Arial Black;
  dominant-baseline: central;
  text-anchor: middle;
}</style></svg>