<svg xmlns="http://www.w3.org/2000/svg" width="608" height="720" version="1">
  <style>
    .a{
    overflow:visible;
    }
    .b{
    clip-rule:evenodd;
    fill-rule:evenodd;
    fill:#fff;
    }
  </style>
  <defs>
    <clipPath>
      <use xlink:href="#SVGID_3_" x="0" y="0" width="634.4" height="717.8" class="a"/>
    </clipPath>
    <clipPath>
      <use xlink:href="#SVGID_1_" x="0" y="0" width="634.4" height="717.8" class="a"/>
    </clipPath>
  </defs>
  <metadata/>
  <g>
    <g transform="matrix(0.9654821 0 0 1.0034298 0 -0.2037159)">
      <defs>
        <rect y="0.1" width="629.6" height="717.7" x="0"/>
      </defs>
      <clipPath>
        <use xlink:href="#SVGID_1_" x="0" y="0" width="634.4" height="717.8" class="a"/>
      </clipPath>
      <g clip-path="url(#SVGID_2_)">
        <defs>
          <rect width="629.6" height="717.7" x="0" y="0"/>
        </defs>
        <clipPath>
          <use xlink:href="#SVGID_3_" x="0" y="0" width="634.4" height="717.8" class="a"/>
        </clipPath>
        <rect y="0.2" width="634.4" height="717.6" x="0" style="clip-path:url(#SVGID_4_);clip-rule:evenodd;fill-rule:evenodd;fill:#002b55"/>
      </g>
    </g>
    <rect x="45.2" y="399" width="517.5" height="3.8" class="b"/>
    <rect x="45.2" y="538.3" width="517.5" height="3.7" class="b"/>
    <rect x="45.2" y="670" width="517.5" height="3.7" class="b"/>
    <rect x="45.2" y="264.7" width="159.3" height="3.8" class="b"/>
    <rect x="406.2" y="266.2" width="156.5" height="3.8" class="b"/>
    <path d="M55.7 343.1L55.7 319.1C55.7 309 54.5 307.4 46.6 307.4L46.6 305.3 72.3 305.3 72.3 307.4C64.4 307.4 63.3 309 63.3 319.1L63.3 343.6C63.3 356.6 70.4 362.6 80 362.6 90 362.6 97.5 356.6 97.5 343.6L97.5 319.1C97.5 309 96.3 307.4 88.4 307.4L88.4 305.3 110.6 305.3 110.6 307.4C102.7 307.4 101.5 309 101.5 319.1L101.5 343.1C101.5 358.8 91.2 367.1 78.5 367.1 65.9 367.1 55.7 358.8 55.7 343.1" class="b"/>
    <path d="M158.2 316.7L158.2 351.5C158.2 361.5 159.5 363.2 167.4 363.2L167.4 365.3 145.6 365.3 145.6 363.2C153.5 363.2 154.7 361.5 154.7 351.5L154.7 319C154.7 309 153.5 307.4 145.6 307.4L145.6 305.3 159.1 305.3 195.6 352.9 195.6 319C195.6 309 194.5 307.4 186.6 307.4L186.6 305.3 208.3 305.3 208.3 307.4C200.4 307.4 199.2 309 199.2 319L199.2 367 197 367 158.2 316.7" class="b"/>
    <path d="M264.7 319L264.7 351.5C264.7 361.5 265.9 363.2 273.8 363.2L273.8 365.3 248.1 365.3 248.1 363.2C256 363.2 257.1 361.5 257.1 351.5L257.1 319C257.1 309 256 307.4 248.1 307.4L248.1 305.3 273.8 305.3 273.8 307.4C265.9 307.4 264.7 309 264.7 319" class="b"/>
    <path d="M347.5 309.2L347.5 351.5C347.5 361.5 348.8 363.2 356.7 363.2L356.7 365.4 330.9 365.4 330.9 363.2C338.8 363.2 340 361.5 340 351.5L340 309.2 327.5 309.2C318.8 309.2 317.8 311.5 316.5 316.8L316 318.8 314 318.8 314.9 305.3 372.7 305.3 373.5 318.8 371.5 318.8 371.1 316.8C369.7 311.5 368.8 309.2 360 309.2L347.5 309.2" class="b"/>
    <path d="M420.3 351.6L420.3 319C420.3 309 419.2 307.4 411.3 307.4L411.3 305.3 454.8 305.3 455.6 318.5 453.6 318.5 453.2 316.5C451.8 311.3 450.9 309 442.1 309L427.9 309 427.9 331.7 432.7 331.7C442.3 331.7 443.8 330.5 443.8 322.1L445.8 322.1 445.8 345 443.8 345C443.8 336.5 442.3 335.3 432.7 335.3L427.9 335.3 427.9 350C427.9 360.1 429.1 361.7 437 361.7L445.2 361.7C454 361.7 455.1 359.4 456.3 354.1L456.8 352.1 458.8 352.1 458 365.4 411.3 365.4 411.3 363.3C419.2 363.3 420.3 361.6 420.3 351.6" class="b"/>
    <path d="M519.3 309C519.3 309 527.4 309 528.5 309 547.1 309 551.1 323.6 551.1 335.4 551.1 347.1 547.1 361.7 528.5 361.7L528.1 361.7C520.3 361.7 519.3 360.1 519.3 350.1L519.3 309M502.6 363.3L502.6 365.4 528.4 365.4C550.6 365.4 560.2 351.9 560.2 335.4 560.2 318.8 550.6 305.3 528.4 305.3L502.6 305.3 502.6 307.4C510.5 307.4 511.7 309 511.7 319L511.7 351.6C511.7 361.6 510.5 363.3 502.6 363.3z" class="b"/>
    <path d="M281.1 193L277.2 193 276.9 193 276.7 195.6C275.8 204.8 279.7 207 279.7 207L281.1 193" class="b"/>
    <path d="M287.1 193.2L283.2 193.2 282.9 193.3 282.7 195.9C281.8 205 285.8 207.2 285.8 207.2L287.1 193.2" class="b"/>
    <path d="M293.6 193.2L289.6 193.2 289.3 193.3 289.1 195.9C288.2 205 292.2 207.2 292.2 207.2L293.6 193.2" class="b"/>
    <path d="M332.1 193L336 193 336.3 193 336.5 195.6C337.4 204.8 333.5 207 333.5 207L332.1 193" class="b"/>
    <path d="M325.9 193.2L329.8 193.2 330.1 193.3 330.3 195.9C331.2 205 327.2 207.2 327.2 207.2L325.9 193.2" class="b"/>
    <path d="M319.6 193.2L323.5 193.2 323.9 193.3 324 195.9C324.9 205 321 207.2 321 207.2L319.6 193.2" class="b"/>
    <path d="M348.8 247.7C348.8 236.8 329.6 227.9 305.9 227.9 282.2 227.9 263 236.8 263 247.7 263 248.3 263.1 248.9 263.2 249.5 265.2 239.4 283.6 231.6 305.9 231.6 328.3 231.6 346.6 239.4 348.6 249.5 348.7 248.9 348.8 248.3 348.8 247.7" class="b"/>
    <polyline points="295.2 266.8 293.9 262.6 297.4 259.9 293.1 259.9 291.8 255.7 290.4 259.9 286.2 259.9 289.6 262.6 288.3 266.8 291.8 264.2 295.2 266.8 " transform="matrix(1.1054772 0 0 1.1054772 -42.81712 -39.974719)" class="b"/>
    <polyline points="310.9 266.8 309.6 262.6 313 259.9 308.8 259.9 307.4 255.7 306.1 259.9 301.8 259.9 305.3 262.6 304 266.8 307.4 264.2 310.9 266.8 " transform="matrix(1.1054772 0 0 1.1054772 -42.81712 -39.974719)" class="b"/>
    <polyline points="342.2 266.8 340.9 262.6 344.4 259.9 340.1 259.9 338.8 255.7 337.5 259.9 333.2 259.9 336.6 262.6 335.3 266.8 338.8 264.2 342.2 266.8 " transform="matrix(1.1054772 0 0 1.1054772 -42.81712 -39.974719)" class="b"/>
    <polyline points="326.6 266.8 325.2 262.6 328.7 259.9 324.4 259.9 323.1 255.7 321.8 259.9 317.5 259.9 321 262.6 319.6 266.8 323.1 264.2 326.6 266.8 " transform="matrix(1.1054772 0 0 1.1054772 -42.81712 -39.974719)" class="b"/>
    <polyline points="284.9 275.6 283.6 271.3 282.2 275.6 278 275.6 281.4 278.2 280.1 282.5 283.6 279.9 287 282.5 285.7 278.2 289.2 275.6 284.9 275.6 " transform="matrix(1.1054772 0 0 1.1054772 -42.81712 -39.974719)" class="b"/>
    <polyline points="300.6 275.6 299.2 271.3 297.9 275.6 293.6 275.6 297.1 278.2 295.8 282.5 299.2 279.9 302.7 282.5 301.4 278.2 304.8 275.6 300.6 275.6 " transform="matrix(1.1054772 0 0 1.1054772 -42.81712 -39.974719)" class="b"/>
    <polyline points="331.9 275.6 330.6 271.3 329.2 275.6 325 275.6 328.4 278.2 327.1 282.5 330.6 279.9 334 282.5 332.7 278.2 336.2 275.6 331.9 275.6 " transform="matrix(1.1054772 0 0 1.1054772 -42.81712 -39.974719)" class="b"/>
    <polyline points="348.1 275.6 346.8 271.3 345.5 275.6 341.2 275.6 344.7 278.2 343.3 282.5 346.8 279.9 350.3 282.5 348.9 278.2 352.4 275.6 348.1 275.6 " transform="matrix(1.1054772 0 0 1.1054772 -42.81712 -39.974719)" class="b"/>
    <polyline points="316.2 275.6 314.9 271.3 313.6 275.6 309.3 275.6 312.7 278.2 311.4 282.5 314.9 279.9 318.4 282.5 317 278.2 320.5 275.6 316.2 275.6 " transform="matrix(1.1054772 0 0 1.1054772 -42.81712 -39.974719)" class="b"/>
    <path d="M321.4 81.5C335.4 74.2 340.4 78.2 340.3 78.5 338.6 83.4 336.7 86.2 340.2 88.9 347.2 94.2 366.5 83 375.1 78.4 375.1 78.4 385.6 73.2 385.4 80.2 385.4 80.2 388 78.7 393.1 77.3 397 76.2 385.9 65.4 371.8 71.6 359.7 78.1 345.3 82.7 341.8 82.2 341.8 82 341.9 81.9 341.9 81.7 343.5 77 346.6 75.1 343.6 72.4 338.4 67.8 323.7 72.6 316.5 75.5L320.8 81.8 321.4 81.5" class="b"/>
    <path d="M210.6 76.3L211.1 76C226.9 64.3 233 70.5 233.1 72.4 233.3 75.4 233.5 72.7 233.3 76 232.6 88.3 245.6 74.7 255.7 78.7 257.9 79.6 258.2 79.7 258.2 79.7 256.6 77.2 257.4 71.2 257.4 71.2L254.2 70.6C254.2 70.6 254.1 70.7 254.1 70.7 238.2 68.8 235.8 77.6 236.1 73.7 236.2 73.6 236.9 66.8 234.5 64.5 231.9 62.1 218.4 60.5 200.4 75.9L200.2 76.2C200.2 76.2 203.4 75.3 210.6 76.3" class="b"/>
    <path d="M285.2 97.7C285.1 94.3 283.2 90.2 283.2 90.2 277.7 91.7 273.8 86.4 271.2 83.1L271.1 82.8 270.3 82C270.1 81.8 270 81.7 269.9 81.6L269.9 81.6 269.5 81.3C269.5 81.3 268.1 84.1 269.5 87L269 86.4 269 86.5C268.8 86 275.7 99.7 285.2 97.7" class="b"/>
    <path d="M72 498.6C54.6 498.6 54.4 480.5 54.4 480.5L52.5 480.5 52.5 502.5 54.4 502.5C54.9 500.4 56 498.9 57.2 497.9 60.3 498.6 64.8 502.5 72 502.5 81.8 502.5 90.2 495.5 90.2 484.5 90.2 479 87.6 473.2 80.2 469.3L71.1 464.4C62.9 459.9 59.6 457.2 59.6 452 59.6 446.9 63.5 443 68.8 443 79.9 443 82.7 452.5 83.4 460.6L85.4 460.6 85.4 438.6 83.5 438.6C83 440.6 81.9 442.1 80.7 443.1 77.9 440.9 74.7 439.1 69.1 439.1 59.9 439.1 53.3 445.6 53.3 454 53.3 461.6 58.3 467.5 63.9 470.5L73 475.4C79.6 479 83.9 482.9 83.9 487.6 83.9 494 78.8 498.6 72 498.6" class="b"/>
    <path d="M178.3 444.6C187.1 444.6 188 446.9 189.3 452.2L189.8 454.3 191.8 454.3 191 440.8 133.1 440.8 132.3 454.3 134.3 454.3 134.8 452.2C136.1 446.9 137 444.6 145.8 444.6L158.3 444.6 158.3 487C158.3 497 157.1 498.7 149.1 498.7L149.1 500.8 175 500.8 175 498.7C167 498.7 165.8 497 165.8 487L165.8 444.6 178.3 444.6" class="b"/>
    <path d="M245.4 476.4L255.3 452.2 265.3 476.4 245.4 476.4M264 498.7L264 500.8 290.4 500.8 290.4 498.7C282.5 498.7 282 497 279.1 490L258 439.1 256.8 439.1 235.9 490C232.9 497 232.5 498.7 224.5 498.7L224.5 500.8 246.7 500.8 246.7 498.7C238.8 498.7 237 496.5 239.3 491.1L243.9 480 266.9 480 271.5 491.1C273.7 496.6 271.9 498.7 264 498.7z" class="b"/>
    <path d="M367.5 444.6C376.3 444.6 377.2 446.9 378.5 452.2L379 454.3 381 454.3 380.2 440.8 322.3 440.8 321.5 454.3 323.5 454.3 323.9 452.2C325.3 446.9 326.3 444.6 335 444.6L347.5 444.6 347.5 487C347.5 497 346.3 498.7 338.3 498.7L338.3 500.8 364.1 500.8 364.1 498.7C356.2 498.7 355 497 355 487L355 444.6 367.5 444.6" class="b"/>
    <path d="M421.6 498.7L421.6 500.8 468.3 500.8 469.1 487.5 467.1 487.5 466.6 489.5C465.4 494.8 464.3 497.2 455.6 497.2L447.3 497.2C439.4 497.2 438.3 495.5 438.3 485.5L438.3 470.8 443 470.8C452.6 470.8 454.1 472 454.1 480.5L456.1 480.5 456.1 457.5 454.1 457.5C454.1 465.9 452.6 467.1 443 467.1L438.3 467.1 438.3 444.4 452.4 444.4C461.2 444.4 462.1 446.7 463.5 451.9L464 453.9 466 453.9 465.1 440.8 421.6 440.8 421.6 442.9C429.5 442.9 430.7 444.4 430.7 454.5L430.7 487C430.7 497.1 429.5 498.7 421.6 498.7" class="b"/>
    <path d="M539.6 498.6C522.2 498.6 522 480.5 522 480.5L520.1 480.5 520.1 502.5 522 502.5C522.5 500.4 523.6 498.9 524.8 497.9 527.8 498.6 532.4 502.5 539.6 502.5 549.4 502.5 557.8 495.5 557.8 484.5 557.8 479 555.2 473.2 547.8 469.3L538.7 464.4C530.5 459.9 527.2 457.2 527.2 452 527.2 446.9 531.1 443 536.4 443 547.4 443 550.3 452.5 551 460.6L553 460.6 553 438.6 551.1 438.6C550.6 440.6 549.4 442.1 548.3 443.1 545.5 440.9 542.3 439.1 536.7 439.1 527.5 439.1 520.9 445.6 520.9 454 520.9 461.6 525.9 467.5 531.5 470.5L540.6 475.4C547.2 479 551.5 482.9 551.5 487.6 551.5 494 546.4 498.6 539.6 498.6" class="b"/>
    <path d="M71.2 636.7C53.8 636.7 53.6 618.6 53.6 618.6L51.7 618.6 51.7 640.6 53.6 640.6C54.1 638.5 55.2 637 56.4 636 59.4 636.7 64 640.6 71.2 640.6 81 640.6 89.4 633.6 89.4 622.6 89.4 617.1 86.8 611.3 79.4 607.4L70.3 602.5C62.1 598 58.8 595.3 58.8 590 58.8 585 62.7 581.1 68 581.1 79 581.1 81.9 590.7 82.6 598.7L84.6 598.7 84.6 576.7 82.6 576.7C82.2 578.7 81 580.2 79.9 581.2 77 579 73.9 577.2 68.3 577.2 59.1 577.2 52.4 583.7 52.4 592.1 52.4 599.7 57.5 605.6 63 608.6L72.2 613.5C78.7 617.1 83.1 621 83.1 625.6 83.1 632.1 78 636.7 71.2 636.7" class="b"/>
    <path d="M131.1 636.8L131.1 638.9 177.8 638.9 178.6 625.6 176.6 625.6 176.1 627.6C174.9 632.9 173.8 635.3 165 635.3L156.8 635.3C148.9 635.3 147.7 633.6 147.7 623.6L147.7 608.9 152.5 608.9C162.1 608.9 163.6 610.1 163.6 618.6L165.6 618.6 165.6 595.7 163.6 595.7C163.6 604 162.1 605.2 152.5 605.2L147.7 605.2 147.7 582.5 161.9 582.5C170.7 582.5 171.6 584.8 173 590L173.4 592 175.4 592 174.6 578.9 131.1 578.9 131.1 581C139 581 140.1 582.5 140.1 592.5L140.1 625.1C140.1 635.2 139 636.8 131.1 636.8" class="b"/>
    <path d="M222.9 636.8L222.9 638.9 244.6 638.9 244.6 636.8C236.8 636.8 235.5 635.1 235.5 625.1L235.5 590.3 274.3 640.6 276.5 640.6 276.5 592.6C276.5 582.6 277.7 581 285.6 581L285.6 578.9 263.9 578.9 263.9 581C271.8 581 272.9 582.6 272.9 592.6L272.9 626.5 236.4 578.9 222.9 578.9 222.9 581C230.8 581 232 582.6 232 592.6L232 625.1C232 635.1 230.8 636.8 222.9 636.8" class="b"/>
    <path d="M338 614.5L347.9 590.3 357.9 614.5 338 614.5M356.7 636.8L356.7 638.9 383.1 638.9 383.1 636.8C375.2 636.8 374.7 635.1 371.7 628.1L350.7 577.2 349.4 577.2 328.5 628.1C325.6 635.1 325.1 636.8 317.1 636.8L317.1 638.9 339.4 638.9 339.4 636.8C331.5 636.8 329.7 634.6 332 629.2L336.5 618.1 359.5 618.1 364.1 629.2C366.4 634.7 364.6 636.8 356.7 636.8z" class="b"/>
    <path d="M457.8 582.7C466.5 582.7 467.5 585 468.8 590.3L469.3 592.3 471.3 592.3 470.4 578.9 412.6 578.9 411.7 592.3 413.7 592.3 414.2 590.3C415.5 585 416.5 582.7 425.3 582.7L437.8 582.7 437.8 625.1C437.8 635.1 436.5 636.8 428.6 636.8L428.6 638.9 454.4 638.9 454.4 636.8C446.5 636.8 445.3 635.1 445.3 625.1L445.3 582.7 457.8 582.7" class="b"/>
    <path d="M509.5 636.8L509.5 638.9 556.2 638.9 557 625.6 555 625.6 554.5 627.6C553.3 632.9 552.2 635.3 543.4 635.3L535.2 635.3C527.3 635.3 526.2 633.6 526.2 623.6L526.2 608.9 530.9 608.9C540.5 608.9 542 610.1 542 618.6L544 618.6 544 595.7 542 595.7C542 604 540.5 605.2 530.9 605.2L526.2 605.2 526.2 582.5 540.3 582.5C549.1 582.5 550 584.8 551.4 590L551.8 592 553.8 592 553 578.9 509.5 578.9 509.5 581C517.4 581 518.5 582.5 518.5 592.5L518.5 625.1C518.5 635.2 517.4 636.8 509.5 636.8" class="b"/>
    <polyline points="236.7 218.3 247.8 215.4 234.7 213.5 243.5 212.2 236.5 208.6 218 211.8 236.7 218.3 " transform="matrix(1.1054772 0 0 1.1054772 -42.81712 -39.974719)" class="b"/>
    <polyline points="287 216.4 287 213.7 251.6 209.3 260.9 202.1 235.8 206.2 256.4 216.9 250.3 211 287 216.4 " transform="matrix(1.1054772 0 0 1.1054772 -42.81712 -39.974719)" class="b"/>
    <polyline points="241.1 224 287.6 220.9 287.1 218.4 248.7 221.1 252 216.3 226 223.5 254.4 230.6 251.2 226.4 241.1 224 " transform="matrix(1.1054772 0 0 1.1054772 -42.81712 -39.974719)" class="b"/>
    <polyline points="306.1 220.9 325.8 220.9 325.7 218.4 306.2 218.5 306.1 220.9 " transform="matrix(1.1054772 0 0 1.1054772 -42.81712 -39.974719)" class="b"/>
    <polyline points="325.6 214.1 306.3 214.1 306.3 216.5 325.7 216.4 325.6 214.1 " transform="matrix(1.1054772 0 0 1.1054772 -42.81712 -39.974719)" class="b"/>
    <polyline points="407.4 221.1 374.5 219.4 374.6 220.4 374.6 220.5 345.2 219.4 344.5 221.3 375.2 222.7 377.1 229.6 406.1 230.8 400.9 225.2 407.4 221.1 " transform="matrix(1.1054772 0 0 1.1054772 -42.81712 -39.974719)" class="b"/>
    <polyline points="408.1 207.7 375.4 209.3 373.9 213.9 373.9 214 373.9 214 373.9 213.9 345.2 215.3 345.4 217.4 374.7 216.1 374.7 216.2 377.9 217.2 402.7 218.3 401.5 214.6 408.1 207.7 " transform="matrix(1.1054772 0 0 1.1054772 -42.81712 -39.974719)" class="b"/>
    <path d="M390.9 263.3C390.1 232.4 349.8 211.7 306.8 211.7 306.8 211.7 306.8 211.7 306.8 211.7 306.8 211.7 306.8 211.7 306.8 211.7 269.9 211.7 222.2 228.9 221.3 263.1 220.9 278.2 236.5 286.6 244.8 281.6 249.8 278.5 252.8 272.9 251.3 267.2 251.3 267 251.2 266.9 251.2 266.7 251.2 266.7 251.2 266.6 251.2 266.6 251.1 266.2 251 265.9 250.8 265.5 250.7 265.1 250.5 264.8 250.3 264.4 250.2 264.4 250.2 264.4 250.2 264.3 250.1 264.2 250.1 264 250 263.9 249.8 263.7 249.7 263.5 249.6 263.3 249.6 263.4 249.6 263.5 249.6 263.5 247.5 260.8 243.7 259.7 240.5 261.2 236.5 263 234.7 267.9 236.4 272.1 237.7 275.2 240.6 277 243.6 277 242.9 279.4 230.5 277.8 229.6 268.5 227.6 248.7 255.4 217.4 306.8 217.4 354.5 217.4 385.3 252.1 383.5 269.9 382.5 279.7 370.9 279.8 370 277 373 277 375.9 275.2 377.2 272.1 379 267.9 377.2 263 373.2 261.2 369.9 259.7 366.2 260.8 364 263.5 364 263.5 364 263.4 364 263.3 363.9 263.5 363.8 263.7 363.7 263.9 363.6 264.1 363.5 264.2 363.4 264.3 363.4 264.4 363.4 264.4 363.4 264.4 363.2 264.8 363 265.1 362.8 265.5 362.6 265.9 362.5 266.2 362.4 266.6 362.4 266.7 362.4 266.7 362.4 266.7 362.4 266.9 362.3 267 362.3 267.2 360.8 272.9 363.9 278.4 368.9 281.6 375.7 286.1 391.3 280.1 390.9 263.3" class="b"/>
    <path d="M295.9 72.4C294.8 70.6 293.7 70.1 291.1 69.2 286.8 67.9 284 67.4 282.6 68.9 281.9 69.6 281.6 70.7 281.7 72L281.7 72 281.7 72C282.1 73.5 284.2 74.5 285.9 75.1 288 75.8 289.9 76.4 290.8 74.8 290.8 74.7 290.8 74.7 290.9 74.6 291.1 74.2 291.6 73.5 291.4 72.5 292.4 72.2 294.2 72.4 295.4 72.9L296.5 73.4 295.9 72.4M332.6 112.8L332.9 112.8C333.1 112.8 360.8 110.7 372.6 102.8 376.6 100.6 379.5 97.8 382.2 95.1 384.4 92.9 386.4 90.9 388.8 89.5 392.1 87.3 401.6 85 404.7 84.4L404.6 83.6C389.3 85.1 384 89.3 378.5 93.9 374.4 97.2 370.2 100.7 361.5 103.3 348.2 107.3 331.8 108.8 331.7 108.8L331.2 108.8 331.4 109.3 332.5 112.6 332.6 112.8zM283.9 112.7C284.2 112.2 284.2 112.2 284.1 112.1L284 112 283.9 112.1 283.5 112.2C283.4 112.2 273.9 114.8 253.4 106.2 244.1 102.3 236.8 97.7 230.4 93.6 220.9 87.7 212.7 82.5 202.4 82.3L202.2 82.3 202.2 82.5 202.2 82.8 202.1 83 202.3 83C203.2 83.2 203.9 83.4 204.6 83.5 207.9 84.2 209.4 84.5 217.3 88.6 224.1 92.8 232.3 98.1 241.8 104.4 257.5 113.7 271 117.6 280 115.6 280.1 115.5 280.2 115.5 280.2 115.5 282.7 115 283.8 112.8 283.9 112.7zM331.4 139.9L330 141.2C344.4 153.7 334.4 190 334.4 190L319.6 190C319.6 190 314.5 166.7 314.1 166.9 313 167.6 313.1 177.9 317 189L317 192.4 295.8 192.5 295.9 189.2C298.8 181 299.3 172.9 298.8 164.9 298.8 164.4 293 189.8 293.1 190L277.8 189.9 274.6 174.3C272.7 158 273.4 149 280.2 142.8 280 142.5 279.5 142.2 279.1 141.2 270.6 147.2 270.8 160.6 271 167 265.8 166.5 259.8 165.6 255.3 164.6 262.7 142.7 271.8 131.6 273.6 129.5 273.7 129.5 273.8 129.4 273.8 129.3 273.9 129.2 274 129.2 274 129.1L273.5 128.5C273.6 128.5 273.6 128.4 273.7 128.3 273.8 128.2 274 128 274.1 127.8 274.1 127.8 274 128 273.7 128.3 273.6 128.4 273.6 128.5 273.5 128.5L273.1 128.1C273.1 128.1 273 128.3 272.7 128.6 264.1 137.8 256.9 149.6 251.3 163.5 247.4 162.5 243.8 161.2 240.1 159.9 250.7 138 261.8 127.9 263.9 126 264 126 264.1 125.9 264.2 125.8 264.3 125.8 264.3 125.7 264.4 125.6L263.9 124.9C264 124.9 264 124.8 264.1 124.7 264.3 124.6 264.4 124.5 264.6 124.3 264.6 124.3 264.4 124.5 264.1 124.7 264 124.8 264 124.8 263.9 124.9L263.7 124.6C263.6 124.6 263.5 124.7 263.1 125 252.8 133.2 243.7 144.5 236.1 158.4 232.2 156.9 228.4 155.4 224.3 153.9 238.2 132.8 251.2 124.1 253.7 122.6 253.8 122.5 253.9 122.5 254 122.4 254.1 122.4 254.2 122.3 254.2 122.3L253.8 121.3C253.8 121.3 253.9 121.3 253.9 121.2 254.1 121.1 254.3 121 254.5 120.9 254.5 120.9 254.3 121 253.9 121.2 253.9 121.3 253.8 121.3 253.8 121.3L253.6 121.1C253.6 121.1 253.4 121.2 253.1 121.4 241 128.3 229.9 138.7 219.9 152.5 215.7 151.1 211.2 149.8 206.2 148.7 223.4 126.7 238.7 118.7 241.6 117.3 241.7 117.3 241.8 117.2 241.9 117.2 242 117.1 242.1 117.1 242.2 117L241.8 116C241.8 116 241.9 115.9 241.9 115.9 242.1 115.8 242.3 115.7 242.5 115.7 242.5 115.7 242.3 115.7 241.9 115.9 241.9 115.9 241.8 116 241.8 116L241.7 115.8C241.7 115.8 241.5 115.9 241.1 116.1 226.9 122.2 213.4 132.9 200.9 147.7 196.2 146.9 191.1 146.3 185.4 145.9 184.7 145.9 184.1 145.9 183.4 145.8 207 118.9 227.5 111.5 231.4 110.2 231.5 110.2 231.6 110.2 231.7 110.1 231.8 110.1 231.9 110.1 232 110.1L231.7 108.9C231.7 108.8 231.7 108.8 231.8 108.8 232 108.8 232.2 108.7 232.4 108.6 232.4 108.6 232.2 108.7 231.8 108.8 231.7 108.8 231.7 108.8 231.7 108.8L231.7 108.8C231.7 108.8 231.4 108.8 231 108.9 212.2 114.1 193.8 126.5 176.3 145.6 168 145.6 160.3 146.3 152.7 147.1 184.2 110.3 211.9 102.8 217.1 101.7 217.2 101.6 217.3 101.6 217.4 101.6 217.5 101.6 217.7 101.5 217.7 101.5L217.5 100.2C217.5 100.2 217.6 100.2 217.6 100.2 217.8 100.2 218 100.1 218.2 100.1 218.2 100.1 218 100.1 217.6 100.2 217.6 100.2 217.5 100.2 217.5 100.2L217.5 100.2C217.5 100.2 217.3 100.3 216.9 100.3 185.6 105.9 159.6 129.4 143.3 148.2 136.1 149.1 128 150 120.7 150.4 157.3 103.1 202 92.8 202.4 92.7L202.2 92.7 202.2 91.4C202.6 91.3 202.8 91.3 202.8 91.3 200.5 91.6 198.2 92 195.9 92.5 156.8 100.3 131.3 129.1 117.3 144.9 115.1 147.2 113.3 149.3 111.7 151 103.6 151.9 89.9 153.4 81.5 154.3 103.7 134 121.6 118.7 134.4 108.2 154.6 91.7 175.8 79.1 202.1 78.9 232.9 78.6 234 101.2 286.4 106.4 293.1 98.4 281.6 74.4 270 77.2 263.7 78.7 266.7 87.6 266.7 87.6 266.4 87.1 256.3 75.8 262.3 69.6 266.3 65.4 274.6 68.8 277.3 70 279.2 65.6 285 60.8 292.9 63 296 63.8 302.6 65.2 307 67.9 307 67.9 322.4 86.2 328.6 101.9 336.2 101.9 363.6 97.8 370.5 92.6 383.9 82.6 397.9 78.6 408.7 78.6 415 78.6 441.4 86.7 463 101.3 482.3 114.5 516.9 142.3 530.1 154.2 522.8 153.2 510.9 151.4 498.1 149.7 486.9 138.2 453.7 106 423.2 95.1 417.2 92.9 411.4 91.5 405.8 91.3 405.8 91.3 406.4 91.4 407.5 91.6 407.2 91.6 406.8 91.6 406.5 91.5L406.4 92.9C406.8 92.9 448.2 100.9 486.5 148.2 478.2 147.2 470 146.3 463.1 145.7 449.1 130.2 428.1 111.3 402.9 103.3 399 102 395.1 101 391 100.2 390.7 100.1 390.4 100.1 390.4 100.1 390.6 100.1 390.8 100.2 391 100.2 391.6 100.4 392.6 100.6 393.9 101 393.2 100.8 392.5 100.7 391.9 100.5 391.5 100.5 391.3 100.4 391.3 100.4L391.1 101.7C391.2 101.7 391.2 101.8 391.4 101.8 391.5 101.8 391.6 101.8 391.7 101.8 396.7 102.9 423.5 110.1 454.2 145.1 452.1 145 450.3 145 448.8 145 442.2 145.2 437.1 145.2 432.2 145.5 416.1 128 399.3 116.2 382.1 110.5 380.4 109.9 378.6 109.3 376.8 108.8 376.5 108.7 376.2 108.6 376.2 108.6 376.4 108.7 376.6 108.8 376.8 108.8 377.1 108.9 377.6 109.1 378 109.2 377.9 109.2 377.8 109.2 377.7 109.1 377.4 109 377.1 109 377.1 109L376.8 110.3C376.9 110.3 377 110.3 377.1 110.3 377.2 110.4 377.3 110.4 377.4 110.4 381.3 111.6 401.7 119.1 425.3 146 420.5 146.5 415.3 147.4 408.6 148.8 396 133.5 382.2 122.5 367.7 116.3 367.3 116.1 367.1 116 367.1 116L367.1 116.1C366.9 116 366.8 116 366.7 115.9 366.3 115.7 366.1 115.7 366.1 115.7 366.3 115.7 366.5 115.8 366.7 115.9 366.8 116 366.9 116 367.1 116.1L366.6 117.2C366.7 117.3 366.8 117.3 366.9 117.4 367 117.4 367.1 117.5 367.2 117.5 370.2 118.9 386 127.2 403.6 150.3 398.3 151.5 393.9 152.8 390 154.2 379.8 139.7 368.2 128.8 355.7 121.6 355.4 121.4 355.2 121.3 355.2 121.3L355.1 121.5C354.9 121.4 354.8 121.3 354.7 121.2 354.3 121 354.1 120.9 354.1 120.9 354.3 121 354.5 121.1 354.7 121.2 354.8 121.3 354.9 121.4 355.1 121.5L354.6 122.5C354.6 122.5 354.7 122.6 354.8 122.6 354.9 122.7 355 122.7 355.1 122.8 357.7 124.4 371.3 133.5 385.6 155.7 381.5 157.2 377.7 158.6 373.4 160 365.6 145.4 356.3 133.7 345.6 125.2 345.4 124.9 345.2 124.8 345.2 124.8L344.9 125.1C344.8 125 344.7 124.8 344.5 124.7 344.2 124.5 344 124.3 344 124.3 344.2 124.5 344.4 124.6 344.5 124.7 344.6 124.8 344.8 124.9 344.9 125.1L344.4 125.8C344.5 125.9 344.5 126 344.6 126 344.7 126.1 344.8 126.2 344.9 126.2 347.1 128.1 358.5 138.6 369.2 161.3 365.8 162.2 362 163.2 357.6 164 352 149.9 344.8 138.1 336.1 128.8 335.8 128.5 335.7 128.3 335.7 128.3L335.3 128.7C335.2 128.6 335 128.5 334.9 128.3 334.6 128 334.5 127.8 334.5 127.8 334.6 128 334.8 128.2 334.9 128.3 335 128.4 335.1 128.6 335.3 128.7L334.8 129.3C334.8 129.4 334.9 129.4 335 129.5 335 129.6 335.1 129.7 335.2 129.8 337 131.8 346.1 142.9 353.5 164.8 349.8 165.4 345.2 165.9 340.7 166.4 341.2 145.9 331.4 139.9 331.4 139.9z" class="b"/>
  </g>
</svg>
