<svg xmlns="http://www.w3.org/2000/svg" xmlns:xlink="http://www.w3.org/1999/xlink" width="608" height="720" version="1.0">
  <defs>
    <clipPath id="d">
      <use xlink:href="#a" overflow="visible" width="634.4" height="717.804"/>
    </clipPath>
    <clipPath id="c">
      <use xlink:href="#b" overflow="visible" width="634.4" height="717.804"/>
    </clipPath>
  </defs>
  <g transform="matrix(.96548 0 0 1.00343 0 -.204)">
    <defs>
      <path id="b" d="M0 .066h629.566v717.737H0z"/>
    </defs>
    <g clip-path="url(#c)">
      <defs>
        <path id="a" d="M0 0h629.566v717.742H0z"/>
      </defs>
      <path clip-path="url(#d)" clip-rule="evenodd" fill="#002b55" fill-rule="evenodd" d="M0 .203h634.4v717.601H0z"/>
    </g>
  </g>
  <path clip-rule="evenodd" fill="#fff" fill-rule="evenodd" d="M45.18 399.032h517.453v3.761H45.18zM45.18 538.309h517.453v3.75H45.18zM45.18 669.986h517.453v3.75H45.18zM45.18 264.661h159.329v3.761H45.18zM406.178 266.166h156.455v3.751H406.178zM55.661 343.085v-24.032c0-10.009-1.145-11.62-9.055-11.62v-2.105h25.718v2.105c-7.922 0-9.066 1.611-9.066 11.62v24.522c0 13.018 7.158 19.025 16.695 19.025 10.02 0 17.56-6.007 17.56-19.025v-24.522c0-10.009-1.24-11.62-9.16-11.62v-2.105h22.297v2.105c-7.916 0-9.15 1.611-9.15 11.62v24.032c0 15.708-10.285 23.994-22.971 23.994-12.606 0-22.868-8.286-22.868-23.994M158.218 316.728v34.812c0 10.003 1.235 11.705 9.145 11.705v2.105h-21.754v-2.105c7.921 0 9.054-1.702 9.054-11.705v-32.503c0-10.005-1.133-11.604-9.054-11.604v-2.105h13.462l36.562 47.61v-33.901c0-10.005-1.145-11.604-9.055-11.604v-2.105h21.76v2.105c-7.927 0-9.162 1.6-9.162 11.604v48.008h-2.2l-38.758-50.317M264.728 319.037v32.503c0 10.003 1.145 11.705 9.055 11.705v2.105h-25.706v-2.105c7.92 0 9.055-1.702 9.055-11.705v-32.503c0-10.005-1.134-11.604-9.055-11.604v-2.105h25.706v2.105c-7.91 0-9.055 1.6-9.055 11.604M347.525 309.185v42.344c0 10.004 1.234 11.717 9.144 11.717v2.105h-25.8v-2.105c7.915 0 9.144-1.713 9.144-11.717v-42.344h-12.484c-8.758 0-9.724 2.307-11.06 7.606l-.46 2h-2.015l.87-13.463h57.822l.864 13.462h-2.009l-.472-1.999c-1.33-5.3-2.29-7.606-11.06-7.606h-12.484M420.347 351.551v-32.565c0-9.998-1.158-11.582-9.06-11.582v-2.077h43.483l.865 13.158h-1.999l-.472-1.993c-1.348-5.204-2.302-7.505-11.077-7.505H427.94v22.7h4.777c9.566 0 11.087-1.189 11.087-9.6h2.004v22.916h-2.004c0-8.453-1.521-9.655-11.087-9.655h-4.777v14.685c0 10.06 1.14 11.666 9.079 11.666h8.229c8.763 0 9.806-2.313 11.053-7.646l.471-1.999h2.016l-.774 13.304h-46.73v-2.077c7.905.002 9.063-1.681 9.063-11.73M519.272 308.988h9.245c18.587 0 22.595 14.629 22.595 26.362 0 11.727-4.008 26.352-22.595 26.352h-.387c-7.815 0-8.86-1.595-8.86-11.621v-41.093m-16.654 54.295v2.078h25.801c22.203 0 31.813-13.474 31.813-30.01 0-16.538-9.61-30.023-31.813-30.023h-25.8v2.077c7.915 0 9.059 1.584 9.059 11.61v32.57c0 10.015-1.144 11.698-9.06 11.698zM281.109 192.952h-3.952l-.303.077-.168 2.604c-.92 9.128 3.038 11.363 3.038 11.363l1.385-14.044M287.138 193.187h-3.952l-.299.095-.173 2.6c-.921 9.123 3.037 11.362 3.037 11.362l1.387-14.057M293.57 193.187h-3.94l-.314.095-.174 2.6c-.909 9.123 3.055 11.362 3.055 11.362l1.374-14.057M332.065 192.952h3.952l.303.077.168 2.604c.92 9.128-3.032 11.363-3.032 11.363l-1.391-14.044M325.85 193.187h3.947l.298.095.173 2.6c.933 9.123-3.037 11.362-3.037 11.362l-1.38-14.057M319.601 193.187h3.941l.314.095.168 2.6c.916 9.123-3.042 11.362-3.042 11.362l-1.38-14.057M348.788 247.652c0-10.885-19.199-19.71-42.877-19.71-23.674 0-42.867 8.825-42.867 19.71 0 .618.069 1.207.191 1.814 1.999-10.031 20.339-17.886 42.676-17.886 22.349 0 40.688 7.854 42.68 17.886.13-.608.197-1.198.197-1.814"/>
  <path clip-rule="evenodd" fill="#fff" fill-rule="evenodd" d="M283.55 255.017l-1.459-4.728 3.823-2.912h-4.732l-1.46-4.722-1.459 4.722h-4.732l3.827 2.912-1.465 4.728 3.83-2.925 3.828 2.925M300.864 255.017l-1.454-4.728 3.823-2.912h-4.727l-1.46-4.722-1.471 4.722h-4.726l3.817 2.912-1.449 4.728 3.83-2.925 3.817 2.925M335.517 255.017l-1.465-4.728 3.823-2.912h-4.722l-1.47-4.722-1.454 4.722h-4.743l3.834 2.912-1.466 4.728 3.83-2.925 3.833 2.925M318.188 255.017l-1.46-4.728 3.834-2.912h-4.732l-1.47-4.722-1.46 4.722h-4.733l3.834 2.912-1.459 4.728 3.823-2.925 3.823 2.925M272.109 264.684l-1.46-4.716-1.464 4.716h-4.731l3.832 2.918-1.459 4.734 3.823-2.932 3.83 2.932-1.46-4.734 3.817-2.918h-4.728M289.44 264.684l-1.477-4.716-1.46 4.716h-4.725l3.817 2.918-1.45 4.734 3.818-2.932 3.835 2.932-1.46-4.734 3.823-2.918h-4.721M324.082 264.684l-1.47-4.716-1.46 4.716h-4.738l3.827 2.918-1.459 4.734 3.83-2.932 3.817 2.932-1.454-4.734 3.833-2.918h-4.726M342.024 264.684l-1.455-4.716-1.476 4.716h-4.72l3.823 2.918-1.466 4.734 3.839-2.932 3.824 2.932-1.472-4.734 3.84-2.918h-4.737M306.752 264.684l-1.453-4.716-1.472 4.716h-4.737l3.829 2.918-1.455 4.734 3.835-2.932 3.817 2.932-1.454-4.734 3.823-2.918h-4.733M321.438 81.473c13.994-7.308 18.912-3.256 18.821-3.01-1.683 4.907-3.592 7.781-.061 10.453 7.034 5.322 26.305-5.917 34.866-10.53 0 0 10.51-5.222 10.319 1.829 0 0 2.593-1.482 7.669-2.93 3.963-1.112-7.197-11.934-21.288-5.658-12.064 6.495-26.497 11.035-29.982 10.537.038-.135.084-.288.161-.478 1.594-4.66 4.627-6.613 1.623-9.262-5.216-4.604-19.889.202-27.041 3.075l4.271 6.31.642-.336M210.639 76.286l.46-.286c15.837-11.66 21.91-5.473 22.007-3.632.157 2.997.38.314.19 3.632-.696 12.3 12.351-1.33 22.388 2.677 2.223.898 2.47.99 2.47.99-1.595-2.493-.798-8.5-.798-8.5l-3.194-.528s-.051.033-.096.102c-15.91-1.949-18.279 6.877-17.92 3.004.034-.108.792-6.923-1.66-9.23-2.572-2.419-16.073-4.026-34.048 11.39l-.23.27c0-.002 3.207-.877 10.43.111M285.224 97.686c-.168-3.368-2.038-7.506-2.038-7.506-5.462 1.52-9.403-3.772-12.002-7.033l-.062-.309-.825-.808a4.628 4.628 0 00-.388-.454l-.005.067-.41-.354s-1.364 2.858 0 5.698l-.473-.577-.016.067c-.173-.446 6.726 13.252 16.22 11.209M72.047 498.575c-17.447 0-17.632-18.048-17.632-18.048h-1.92v22h1.92c.478-2.167 1.628-3.649 2.78-4.654 3.06.702 7.617 4.654 14.854 4.654 9.8 0 18.12-7.05 18.12-17.991 0-5.507-2.582-11.324-9.935-15.242l-9.134-4.906c-8.185-4.513-11.508-7.23-11.508-12.429 0-5.019 3.901-8.936 9.224-8.936 11.042 0 13.887 9.52 14.556 17.559h2.01v-22.018h-1.914c-.472 2.083-1.617 3.565-2.757 4.558-2.856-2.172-5.99-4.053-11.614-4.053-9.23 0-15.837 6.564-15.837 14.882 0 7.62 5.08 13.541 10.617 16.545l9.128 4.917c6.567 3.616 10.94 7.523 10.94 12.137-.001 6.422-5.139 11.025-11.898 11.025M178.293 444.638c8.768 0 9.722 2.308 11.053 7.601l.483 2.015h2.004l-.858-13.473h-57.833l-.864 13.473h2.009l.472-2.015c1.33-5.293 2.28-7.601 11.06-7.601h12.484v42.35c0 10.005-1.24 11.71-9.155 11.71v2.106h25.806v-2.105c-7.91 0-9.14-1.706-9.14-11.71v-42.351h12.479M245.41 476.378l9.876-24.178 9.975 24.178h-19.85m18.615 22.32v2.105h26.402v-2.105c-7.91 0-8.393-1.7-11.335-8.701l-21.051-50.928h-1.235l-20.928 50.928c-2.947 7-3.425 8.7-11.418 8.7v2.106h22.28v-2.105c-7.9 0-9.711-2.2-7.427-7.59l4.564-11.08h23.005l4.576 11.08c2.29 5.492.476 7.59-7.433 7.59zM367.482 444.638c8.775 0 9.73 2.308 11.065 7.601l.472 2.015h1.998l-.852-13.473h-57.832l-.864 13.473h2.008l.472-2.015c1.337-5.293 2.302-7.601 11.06-7.601h12.485v42.35c0 10.005-1.235 11.71-9.145 11.71v2.106h25.8v-2.105c-7.914 0-9.142-1.706-9.142-11.71v-42.351h12.475M421.616 498.743v2.077h46.73l.762-13.315h-1.998l-.472 2.008c-1.24 5.333-2.29 7.647-11.06 7.647h-8.229c-7.927 0-9.072-1.612-9.072-11.676v-14.686h4.77c9.567 0 11.094 1.207 11.094 9.662h1.999v-22.911h-1.999c0 8.399-1.527 9.6-11.093 9.6h-4.771v-22.701h14.146c8.77 0 9.724 2.295 11.072 7.5l.472 1.998h2.003l-.87-13.164h-43.484v2.083c7.915 0 9.06 1.584 9.06 11.586V487c0 10.065-1.145 11.743-9.06 11.743M539.639 498.575c-17.437 0-17.627-18.048-17.627-18.048h-1.915v22h1.915c.478-2.167 1.622-3.649 2.773-4.654 3.06.702 7.634 4.654 14.855 4.654 9.801 0 18.121-7.05 18.121-17.991 0-5.507-2.57-11.324-9.936-15.242l-9.128-4.906c-8.185-4.513-11.508-7.23-11.508-12.429 0-5.019 3.891-8.936 9.217-8.936 11.043 0 13.889 9.52 14.563 17.559h2.01v-22.018h-1.91c-.483 2.083-1.628 3.565-2.762 4.558-2.851-2.172-5.995-4.053-11.609-4.053-9.23 0-15.842 6.564-15.842 14.882 0 7.62 5.075 13.541 10.61 16.545l9.13 4.917c6.567 3.616 10.946 7.523 10.946 12.137-.002 6.422-5.144 11.025-11.903 11.025M71.228 636.679c-17.447 0-17.644-18.054-17.644-18.054h-1.91v22h1.91c.487-2.16 1.634-3.643 2.789-4.648 3.054.702 7.619 4.649 14.855 4.649 9.801 0 18.126-7.051 18.126-17.988 0-5.524-2.594-11.329-9.942-15.246l-9.133-4.902c-8.185-4.52-11.526-7.237-11.526-12.446 0-5.007 3.907-8.914 9.23-8.914 11.048 0 13.899 9.52 14.573 17.548h2.004v-22.005h-1.914a8.57 8.57 0 01-2.75 4.546c-2.857-2.177-6.008-4.052-11.622-4.052-9.223 0-15.83 6.563-15.83 14.887 0 7.624 5.075 13.536 10.6 16.55l9.133 4.906c6.567 3.604 10.953 7.523 10.953 12.137-.001 6.418-5.144 11.032-11.902 11.032M131.092 636.842v2.066h46.724l.769-13.305h-2.01l-.466 2.014c-1.24 5.322-2.296 7.641-11.064 7.641h-8.224c-7.933 0-9.072-1.611-9.072-11.676v-14.686h4.772c9.559 0 11.092 1.214 11.092 9.662h2.01v-22.904h-2.01c0 8.392-1.533 9.593-11.092 9.593h-4.772v-22.701h14.142c8.778 0 9.733 2.295 11.07 7.5l.483 2.003h1.988l-.853-13.164h-43.485v2.082c7.916 0 9.055 1.579 9.055 11.582v32.543c-.002 10.071-1.142 11.75-9.057 11.75M222.912 636.796v2.1h21.736v-2.1c-7.893 0-9.134-1.706-9.134-11.705v-34.799l38.752 50.31h2.206v-48.015c0-9.998 1.24-11.592 9.15-11.592v-2.11H263.88v2.11c7.904 0 9.044 1.594 9.044 11.592v33.902l-36.556-47.604h-13.456v2.11c7.909 0 9.054 1.594 9.054 11.592v32.503c0 10-1.145 11.706-9.054 11.706M338.043 614.477l9.886-24.173 9.98 24.173h-19.866m18.622 22.32v2.098h26.407v-2.099c-7.91 0-8.387-1.7-11.352-8.689l-21.04-50.94h-1.234l-20.929 50.94c-2.942 6.989-3.425 8.69-11.418 8.69v2.098h22.292v-2.099c-7.916 0-9.734-2.2-7.44-7.589l4.576-11.087h22.989l4.592 11.087c2.28 5.484.46 7.59-7.443 7.59zM457.75 582.748c8.758 0 9.718 2.296 11.054 7.602l.467 1.998h2.003l-.859-13.462h-57.827l-.865 13.462h2l.477-1.998c1.341-5.306 2.295-7.602 11.053-7.602h12.497v42.328c0 10.016-1.247 11.721-9.15 11.721v2.1h25.801v-2.1c-7.904 0-9.144-1.705-9.144-11.721v-42.328h12.494M509.494 636.842v2.066h46.728l.764-13.305h-2l-.483 2.014c-1.23 5.322-2.28 7.641-11.059 7.641h-8.22c-7.926 0-9.07-1.611-9.07-11.676v-14.686h4.772c9.555 0 11.08 1.214 11.08 9.662h2.022v-22.904h-2.021c0 8.392-1.527 9.593-11.081 9.593h-4.772v-22.701h14.136c8.79 0 9.745 2.295 11.065 7.5l.487 2.003h2l-.853-13.164h-43.495v2.082c7.908 0 9.054 1.579 9.054 11.582v32.543c0 10.071-1.146 11.75-9.054 11.75M218.835 201.372l12.26-3.273-14.483-2.016 9.752-1.52-7.753-3.891-20.412 3.48 20.636 7.22M274.496 199.25l-.022-2.975-39.207-4.918 10.363-7.927-27.788 4.526 22.797 11.89-6.804-6.592 40.66 5.995"/>
  <path clip-rule="evenodd" fill="#fff" fill-rule="evenodd" d="M223.747 207.626l51.416-3.425-.622-2.7-42.43 2.891 3.61-5.254-28.708 7.92 31.358 7.916-3.464-4.631-11.16-2.717M295.62 204.213h21.776l-.163-2.763-21.562.119-.05 2.644M317.16 196.678l-21.36.074-.028 2.577 21.461-.08-.074-2.57M407.53 204.432l-36.303-1.814.033 1.039.034.14-32.476-1.269-.747 2.19 33.891 1.504 2.06 7.573 32.06 1.388-5.754-6.232 7.202-4.52M408.306 189.64l-36.17 1.796-1.64 5.096.035.08-.057.01.022-.09-31.66 1.5.155 2.273 32.364-1.392.061.157 3.509 1.117 27.487 1.174-1.377-4.065 7.271-7.656M390.886 263.336c-.775-30.942-41.126-51.647-84.038-51.669 0 .007-.024 0-.028 0h-.028c-36.887.057-84.548 17.224-85.497 51.406-.433 15.124 15.246 23.56 23.476 18.531 5.058-3.087 8.062-8.656 6.567-14.422-.033-.162-.09-.32-.134-.477-.006-.028-.017-.057-.023-.079a9.248 9.248 0 00-.348-1.156c-.168-.393-.376-.718-.573-1.067-.023-.033-.027-.05-.033-.067-.09-.146-.162-.287-.27-.427-.112-.197-.224-.4-.347-.584.011.068.024.135.039.202-2.184-2.761-5.9-3.828-9.184-2.312-3.981 1.824-5.805 6.691-4.065 10.879 1.297 3.105 4.187 4.94 7.225 4.94-.73 2.375-13.114.719-14.04-8.504-1.976-19.823 25.863-51.091 77.234-51.113 47.66-.023 78.441 34.649 76.678 52.46-.96 9.82-12.631 9.898-13.49 7.158 3.036 0 5.927-1.835 7.225-4.94 1.74-4.188-.068-9.054-4.06-10.88-3.293-1.515-7-.448-9.188 2.314.022-.068.022-.135.044-.203a4.963 4.963 0 00-.352.584c-.102.14-.186.28-.27.427-.006.016-.018.033-.028.067-.202.348-.41.673-.578 1.067-.151.382-.253.775-.353 1.156-.012.023-.017.051-.023.079-.045.158-.095.314-.112.477-1.505 5.766 1.572 11.183 6.55 14.422 6.856 4.479 22.427-1.522 22.024-18.269M295.856 72.38c-1.078-1.74-2.127-2.308-4.737-3.15-4.312-1.364-7.09-1.87-8.522-.37-.697.722-1.016 1.824-.916 3.093v.038l.007.033c.415 1.488 2.514 2.511 4.21 3.1 2.078.713 4.008 1.23 4.885-.342.022-.035.062-.097.1-.168.248-.372.697-1.113.489-2.084.993-.376 2.834-.117 4.035.41l1.101.483-.652-1.044m36.726 40.453l.275-.023c.287-.022 27.984-2.11 39.75-10.049 4.043-2.178 6.86-4.985 9.589-7.702 2.155-2.143 4.182-4.154 6.59-5.568 3.302-2.145 12.845-4.48 15.92-5.132l-.1-.753c-15.33 1.45-20.569 5.716-26.104 10.246-4.087 3.35-8.33 6.81-17.02 9.449-13.283 4.02-29.635 5.466-29.798 5.478l-.472.057.163.46 1.117 3.255.09.282zm-48.684-.085c.253-.505.253-.505.18-.606l-.078-.102-.118.04-.41.123c-.09.023-9.588 2.604-30.112-6.04-9.217-3.896-16.532-8.472-22.976-12.531-9.482-5.939-17.667-11.081-27.996-11.34h-.157l-.028.168-.04.377-.022.174.168.033c.887.197 1.629.36 2.29.494 3.306.673 4.816.983 12.748 5.052 6.748 4.188 14.973 9.52 24.482 15.836 15.64 9.235 29.18 13.197 38.133 11.143.117-.033.214-.056.281-.062 2.483-.467 3.6-2.663 3.655-2.76zm47.504 27.115l-1.443 1.38c14.49 12.47 4.462 48.807 4.462 48.807l-14.864-.068s-5.097-23.302-5.49-23.067c-1.079.719-.944 11.009 2.974 22.09l-.023 3.401-21.198.108.102-3.358c2.896-8.105 3.38-16.235 2.896-24.228-.023-.478-5.838 24.852-5.736 25.105l-15.325-.124-3.16-15.63c-1.865-16.29-1.18-25.271 5.618-31.514-.196-.237-.707-.596-1.088-1.561-8.477 5.984-8.32 19.39-8.112 25.84-5.215-.5-11.239-1.409-15.696-2.454 7.371-21.881 16.516-33.014 18.307-35.04.056-.068.135-.158.203-.23.072-.084.14-.162.208-.236l-.523-.544c.069-.069.135-.158.191-.214.14-.157.281-.32.438-.487 0 0-.168.173-.438.487-.067.069-.122.146-.19.214l-.377-.398a12.94 12.94 0 00-.443.505c-8.645 9.161-15.825 20.917-21.355 34.9-3.9-1.084-7.589-2.325-11.2-3.644 10.526-21.865 21.654-32.037 23.81-33.884.061-.062.145-.13.224-.197.084-.067.168-.134.24-.202l-.52-.718c.07-.045.145-.123.19-.163.167-.134.33-.274.499-.409 0 0-.185.14-.5.41-.067.05-.117.106-.19.162l-.242-.338c-.006 0-.191.158-.51.427-10.325 8.208-19.414 19.469-27.025 33.397-3.868-1.476-7.758-2.98-11.856-4.441 13.922-21.108 26.957-29.82 29.455-31.37.078-.044.168-.1.263-.162.09-.063.175-.107.259-.152l-.472-.927c.062-.033.128-.071.179-.1.18-.107.36-.237.55-.332 0 0-.213.113-.55.332-.062.033-.117.067-.18.1l-.123-.24c-.011 0-.212.112-.567.337-12.042 6.87-23.195 17.318-33.172 31.031a136.483 136.483 0 00-13.731-3.715c17.2-22.085 32.526-30.067 35.456-31.454.09-.033.18-.084.28-.128.084-.04.18-.079.281-.135l-.414-1.05c.044-.017.106-.05.14-.068.197-.073.381-.174.577-.253 0 0-.212.084-.577.253a.474.474 0 01-.14.067l-.069-.173c-.005.005-.23.09-.6.275-14.209 6.113-27.744 16.768-40.194 31.657-4.7-.808-9.814-1.45-15.522-1.82-.664-.045-1.304-.067-1.955-.095 23.596-26.93 44.058-34.374 47.965-35.598.084-.022.19-.056.292-.077.101-.034.196-.068.292-.09l-.292-1.201c.017-.012.056-.023.078-.034.202-.057.398-.123.607-.18 0 0-.224.062-.607.18a.222.222 0 01-.078.023l-.028-.079c-.011 0-.236.069-.622.18-18.834 5.153-37.264 17.516-54.768 36.681-8.224-.012-15.989.634-23.544 1.482 31.426-36.837 59.13-44.327 64.417-45.449.096-.023.191-.056.298-.078.1-.017.208-.044.298-.057l-.208-1.29h.033c.208-.05.416-.101.629-.135 0 0-.231.045-.629.134h-.033v-.016c-.006 0-.236.038-.64.128-31.252 5.513-57.249 29.04-73.607 47.897-7.231.887-15.26 1.707-22.545 2.161 36.533-47.262 81.236-57.63 81.68-57.727l-.18.012-.033-1.28c.41-.101.64-.151.64-.151-2.347.33-4.637.746-6.9 1.212-39.122 7.876-64.665 36.585-78.699 52.405-2.115 2.369-3.94 4.435-5.517 6.073-8.106.954-21.85 2.448-30.252 3.301 22.24-20.221 40.126-35.507 52.96-46.017 20.175-16.504 41.31-29.118 67.623-29.342 30.864-.27 31.943 22.286 84.374 27.507 6.675-7.999-4.789-31.965-16.443-29.185-6.31 1.499-3.284 10.346-3.284 10.346-.337-.438-10.42-11.745-4.435-17.997 4.03-4.2 12.372-.786 15.022.47 1.904-4.435 7.736-9.222 15.646-7.033 3.024.825 9.7 2.162 14.045 4.923 0 0 15.364 18.29 21.608 34.01 7.629 0 34.984-4.122 41.945-9.342 13.344-9.993 27.328-14.001 38.134-14.001 6.35 0 32.711 8.089 54.325 22.758 19.344 13.126 53.904 40.975 67.05 52.893a2023.514 2023.514 0 00-31.908-4.513c-11.222-11.547-44.4-43.72-74.977-54.6-5.94-2.183-11.8-3.593-17.392-3.867 0 0 .596.106 1.696.376-.308-.023-.629-.073-.944-.09l-.123 1.33c.416.069 41.75 8.045 80.064 55.369-8.31-1.034-16.421-1.914-23.354-2.515-13.966-15.56-35.018-34.434-60.195-42.462-3.868-1.268-7.815-2.313-11.873-3.032-.392-.09-.623-.133-.623-.133.207.033.42.084.623.133a41.43 41.43 0 012.829.724c-.662-.14-1.324-.308-1.987-.432-.382-.078-.623-.113-.629-.124l-.196 1.326c.096.01.185.033.298.056.1.017.208.044.309.057 5.08 1.087 31.796 8.285 62.497 43.292a84.264 84.264 0 00-5.355-.112c-6.58.145-11.676.168-16.651.426-16.038-17.475-32.851-29.225-50.057-34.962a76.411 76.411 0 00-5.26-1.662c-.382-.117-.601-.18-.601-.18.207.057.404.123.601.18.28.09.717.236 1.2.415-.1-.033-.212-.078-.313-.1-.37-.113-.595-.18-.606-.18l-.309 1.296c.095.028.185.051.298.084.101.024.202.057.303.091 3.884 1.213 24.325 8.656 47.908 35.557-4.806.505-10.016 1.37-16.696 2.84-12.654-15.348-26.43-26.312-40.958-32.571-.348-.157-.574-.248-.584-.269l-.033.1c-.113-.043-.224-.122-.36-.173-.359-.168-.572-.253-.572-.253.19.079.381.18.573.253.101.039.247.13.359.174l-.438 1.145c.09.033.18.079.28.123.09.045.192.102.304.14 3.009 1.432 18.816 9.7 36.428 32.757a147.764 147.764 0 00-13.625 3.93c-10.24-14.449-21.77-25.43-34.3-32.577a16.948 16.948 0 00-.544-.331l-.102.197c-.128-.068-.24-.168-.387-.236-.348-.219-.55-.332-.55-.332.191.096.37.225.55.332.113.062.258.162.387.241l-.498.972c.09.062.179.1.268.162.09.057.18.106.281.157 2.595 1.618 16.157 10.728 30.467 32.958-4.036 1.454-7.876 2.897-12.142 4.273-7.793-14.62-17.122-26.34-27.789-34.828-.292-.265-.487-.405-.487-.416l-.237.32a7.416 7.416 0 00-.388-.338 37.79 37.79 0 00-.493-.409c.168.135.314.275.493.41.102.095.253.207.383.336l-.529.748c.079.062.158.129.237.196.09.073.168.14.257.208 2.195 1.88 13.647 12.39 24.342 35.058a139.45 139.45 0 01-11.643 2.735c-5.552-14.102-12.766-25.958-21.484-35.204-.264-.298-.433-.472-.438-.477l-.37.403c-.13-.13-.253-.28-.37-.415-.276-.314-.434-.488-.434-.488.135.168.281.332.434.488.095.112.23.27.352.42l-.505.534c.069.073.135.145.203.236.078.072.152.157.225.241 1.773 2.004 10.912 13.137 18.278 34.996-3.638.6-8.286 1.118-12.755 1.623.467-20.515-9.312-26.516-9.312-26.516z"/>
</svg>
